<svg width="206" height="185" viewBox="0 0 206 185" fill="none" xmlns="http://www.w3.org/2000/svg">
<g filter="url(#filter0_d_28_10429)">
<rect x="4" width="198" height="177" rx="43" fill="url(#paint0_linear_28_10429)" shape-rendering="crispEdges"/>
<rect x="5" y="1" width="196" height="175" rx="42" stroke="black" stroke-width="2" shape-rendering="crispEdges"/>
</g>
<g filter="url(#filter1_d_28_10429)">
<path d="M77.321 134V61.2727H106.014C111.507 61.2727 116.194 62.2552 120.077 64.2202C123.983 66.1615 126.954 68.9195 128.99 72.4943C131.05 76.0455 132.079 80.224 132.079 85.0298C132.079 89.8594 131.038 94.0142 128.954 97.4943C126.871 100.951 123.853 103.602 119.899 105.449C115.969 107.295 111.211 108.219 105.624 108.219H86.4119V95.8608H103.138C106.073 95.8608 108.512 95.4583 110.453 94.6534C112.394 93.8485 113.838 92.6411 114.785 91.0312C115.756 89.4214 116.241 87.4209 116.241 85.0298C116.241 82.6151 115.756 80.5791 114.785 78.9219C113.838 77.2647 112.383 76.0099 110.418 75.1577C108.476 74.2817 106.026 73.8438 103.067 73.8438H92.6974V134H77.321ZM116.597 100.903L134.672 134H117.697L100.013 100.903H116.597Z" fill="black"/>
<path d="M77.321 134H75.321V136H77.321V134ZM77.321 61.2727V59.2727H75.321V61.2727H77.321ZM120.077 64.2202L119.174 66.0046L119.18 66.0079L119.187 66.0112L120.077 64.2202ZM128.99 72.4943L127.252 73.4841L127.256 73.491L127.26 73.4978L128.99 72.4943ZM128.954 97.4943L130.667 98.5268L130.671 98.5216L128.954 97.4943ZM119.899 105.449L119.053 103.637L119.049 103.639L119.899 105.449ZM86.4119 108.219H84.4119V110.219H86.4119V108.219ZM86.4119 95.8608V93.8608H84.4119V95.8608H86.4119ZM110.453 94.6534L111.219 96.5009L111.219 96.5009L110.453 94.6534ZM114.785 91.0312L113.073 89.9986L113.067 90.0079L113.062 90.0172L114.785 91.0312ZM114.785 78.9219L113.049 79.9142L113.054 79.9234L113.06 79.9327L114.785 78.9219ZM110.418 75.1577L109.595 76.9807L109.608 76.9867L109.622 76.9925L110.418 75.1577ZM92.6974 73.8438V71.8438H90.6974V73.8438H92.6974ZM92.6974 134V136H94.6974V134H92.6974ZM116.597 100.903L118.352 99.9448L117.783 98.9034H116.597V100.903ZM134.672 134V136H138.043L136.427 133.041L134.672 134ZM117.697 134L115.933 134.943L116.498 136H117.697V134ZM100.013 100.903V98.9034H96.6764L98.2488 101.846L100.013 100.903ZM79.321 134V61.2727H75.321V134H79.321ZM77.321 63.2727H106.014V59.2727H77.321V63.2727ZM106.014 63.2727C111.273 63.2727 115.635 64.2136 119.174 66.0046L120.98 62.4357C116.754 60.2968 111.74 59.2727 106.014 59.2727V63.2727ZM119.187 66.0112C122.759 67.7868 125.425 70.276 127.252 73.4841L130.728 71.5045C128.483 67.563 125.206 64.5361 120.967 62.4291L119.187 66.0112ZM127.26 73.4978C129.115 76.6955 130.079 80.5157 130.079 85.0298H134.079C134.079 79.9322 132.985 75.3954 130.72 71.4909L127.26 73.4978ZM130.079 85.0298C130.079 89.567 129.103 93.352 127.238 96.467L130.671 98.5216C132.972 94.6764 134.079 90.1517 134.079 85.0298H130.079ZM127.242 96.4619C125.38 99.5503 122.677 101.944 119.053 103.637L120.745 107.261C125.028 105.261 128.362 102.351 130.667 98.5268L127.242 96.4619ZM119.049 103.639C115.45 105.33 110.998 106.219 105.624 106.219V110.219C111.423 110.219 116.489 109.261 120.75 107.259L119.049 103.639ZM105.624 106.219H86.4119V110.219H105.624V106.219ZM88.4119 108.219V95.8608H84.4119V108.219H88.4119ZM86.4119 97.8608H103.138V93.8608H86.4119V97.8608ZM103.138 97.8608C106.239 97.8608 108.959 97.438 111.219 96.5009L109.687 92.8059C108.064 93.4787 105.907 93.8608 103.138 93.8608V97.8608ZM111.219 96.5009C113.509 95.5514 115.315 94.076 116.509 92.0453L113.062 90.0172C112.362 91.2062 111.28 92.1455 109.687 92.8059L111.219 96.5009ZM116.498 92.0639C117.701 90.0682 118.241 87.6873 118.241 85.0298H114.241C114.241 87.1546 113.811 88.7746 113.073 89.9986L116.498 92.0639ZM118.241 85.0298C118.241 82.35 117.702 79.9444 116.511 77.9111L113.06 79.9327C113.81 81.2138 114.241 82.8801 114.241 85.0298H118.241ZM116.522 77.9296C115.335 75.8519 113.524 74.325 111.213 73.3228L109.622 76.9925C111.241 77.6949 112.342 78.6774 113.049 79.9142L116.522 77.9296ZM111.24 73.3347C108.96 72.3059 106.206 71.8438 103.067 71.8438V75.8438C105.846 75.8438 107.992 76.2575 109.595 76.9807L111.24 73.3347ZM103.067 71.8438H92.6974V75.8438H103.067V71.8438ZM90.6974 73.8438V134H94.6974V73.8438H90.6974ZM92.6974 132H77.321V136H92.6974V132ZM114.841 101.862L132.917 134.959L136.427 133.041L118.352 99.9448L114.841 101.862ZM134.672 132H117.697V136H134.672V132ZM119.461 133.057L101.777 99.9609L98.2488 101.846L115.933 134.943L119.461 133.057ZM100.013 102.903H116.597V98.9034H100.013V102.903Z" fill="white"/>
</g>
<circle cx="82.9999" cy="46" r="8" fill="black" stroke="white" stroke-width="2"/>
<defs>
<filter id="filter0_d_28_10429" x="0" y="0" width="206" height="185" filterUnits="userSpaceOnUse" color-interpolation-filters="sRGB">
<feFlood flood-opacity="0" result="BackgroundImageFix"/>
<feColorMatrix in="SourceAlpha" type="matrix" values="0 0 0 0 0 0 0 0 0 0 0 0 0 0 0 0 0 0 127 0" result="hardAlpha"/>
<feOffset dy="4"/>
<feGaussianBlur stdDeviation="2"/>
<feComposite in2="hardAlpha" operator="out"/>
<feColorMatrix type="matrix" values="0 0 0 0 0 0 0 0 0 0 0 0 0 0 0 0 0 0 0.25 0"/>
<feBlend mode="normal" in2="BackgroundImageFix" result="effect1_dropShadow_28_10429"/>
<feBlend mode="normal" in="SourceGraphic" in2="effect1_dropShadow_28_10429" result="shape"/>
</filter>
<filter id="filter1_d_28_10429" x="73.321" y="61.2727" width="65.3508" height="80.7273" filterUnits="userSpaceOnUse" color-interpolation-filters="sRGB">
<feFlood flood-opacity="0" result="BackgroundImageFix"/>
<feColorMatrix in="SourceAlpha" type="matrix" values="0 0 0 0 0 0 0 0 0 0 0 0 0 0 0 0 0 0 127 0" result="hardAlpha"/>
<feOffset dy="4"/>
<feGaussianBlur stdDeviation="2"/>
<feComposite in2="hardAlpha" operator="out"/>
<feColorMatrix type="matrix" values="0 0 0 0 0 0 0 0 0 0 0 0 0 0 0 0 0 0 0.25 0"/>
<feBlend mode="normal" in2="BackgroundImageFix" result="effect1_dropShadow_28_10429"/>
<feBlend mode="normal" in="SourceGraphic" in2="effect1_dropShadow_28_10429" result="shape"/>
</filter>
<linearGradient id="paint0_linear_28_10429" x1="17" y1="-15" x2="221" y2="202" gradientUnits="userSpaceOnUse">
<stop stop-color="#0038FF"/>
<stop offset="0.838965" stop-color="#132D87"/>
<stop offset="0.938699" stop-color="#033BFF"/>
<stop offset="1" stop-color="#0038FF" stop-opacity="0"/>
</linearGradient>
</defs>
</svg>
